# xmcd
#
# Track frame offsets: 
#        150
#        18498
#        37339
#        57274
#        84430
#        99192
#        112704
#        125078
#        139392
#        158356
#        174843
#        191739
#
# Disc length: 2838 seconds
#
# Revision: 0
# Processed by: cddbd v1.5.2PL0 Copyright (c) Steve Scherf et al.
# Submitted via: ExactAudioCopy v0.99pb5
#
DISCID=950b140c
DTITLE=Wiidakko - Asiat joita et voi koskaan saavutta
DYEAR=2008
DGENRE=Pop
TTITLE0=Äänet
TTITLE1=Jokainen hyvästi on liikaa
TTITLE2=Suuret odotukset
TTITLE3=Vuoristo
TTITLE4=Asiat joita et voi koskaan saavuttaa
TTITLE5=Niin
TTITLE6=Tonava
TTITLE7=Suuret etsinnät
TTITLE8=Vedenalainen
TTITLE9=Juhlat
TTITLE10=Emme odottaneet turhaan
TTITLE11=Ilotulitukset
EXTD=
EXTT0=
EXTT1=
EXTT2=
EXTT3=
EXTT4=
EXTT5=
EXTT6=
EXTT7=
EXTT8=
EXTT9=
EXTT10=
EXTT11=
PLAYORDER=
